<?xml version="1.0" encoding="utf-8"?>
<!-- Generator: Adobe Illustrator 22.0.1, SVG Export Plug-In . SVG Version: 6.00 Build 0)  -->
<svg version="1.1" id="Слой_1" xmlns="http://www.w3.org/2000/svg" xmlns:xlink="http://www.w3.org/1999/xlink" x="0px" y="0px"
	 viewBox="0 0 500 87.5" style="enable-background:new 0 0 500 87.5;" xml:space="preserve">
<style type="text/css">
	.st0{fill:#74BACC;}
	.st1{fill:#5EB1C2;}
	.st2{fill:#3FA8B8;}
	.st3{fill:#88C3D7;}
	.st4{fill:#9CCDE2;}
</style>
<g>
	<g>
		<g>
			<g>
				<g>
					<path d="M166.2,55.4h-6.8l-5.2-13.1h-25.4l-5.2,13.1H117l19.9-50.4h9.3L166.2,55.4z M152,36.6l-10.4-26.3l-10.4,26.3H152z"/>
					<path d="M208.1,4.8v50.4h-6.4v-6.5c-0.3,0.4-0.7,0.8-1,1.2c-1.7,1.8-3.8,3.3-6.1,4.3c-2.4,1-5,1.6-7.7,1.7
						c-2.7,0-5.3-0.4-7.8-1.4c-2.5-1-4.7-2.4-6.5-4.1c-3.7-3.5-5.7-8.3-5.7-13.1c0-4.8,2-9.6,5.7-13.1c1.8-1.7,4.1-3.2,6.5-4.1
						c2.5-0.9,5.2-1.4,7.8-1.4c2.7,0.1,5.3,0.6,7.7,1.7c2.4,1,4.5,2.5,6.1,4.3c0.4,0.4,0.7,0.8,1,1.2V4.8H208.1z M201.8,37.1
						c0-3.6-1.8-7.2-4.6-9.5c-2.9-2.4-6.6-3.5-10.2-3.4c-3.6,0.1-7.1,1.5-9.7,3.8c-2.6,2.4-4,5.6-4.1,9c0,3.4,1.5,6.6,4.1,9
						c1.3,1.2,2.8,2.1,4.4,2.8c1.6,0.7,3.4,1,5.2,1.1c3.6,0.1,7.3-1,10.2-3.4C200,44.3,201.8,40.7,201.8,37.1z"/>
					<path d="M254.1,37.1c0,0.9-0.1,1.8-0.2,2.8h-33.2c1.5,5.8,7.6,10.1,14.8,10.1c4.8,0,9.1-1.9,11.9-4.9l5.9,2.5
						c-4,5.1-10.6,8.2-17.8,8.2c-11.9,0-21.5-8.4-21.5-18.6s9-18.6,20.1-18.6C245.1,18.5,254.1,26.9,254.1,37.1z M247.4,34.4
						c-1.4-5.8-6.8-10.1-13.4-10.1s-12,4.3-13.4,10.1H247.4z"/>
					<path d="M307,35.7v-1.2l0-0.6l0-0.5c0-0.7-0.1-1.4-0.2-2c-0.2-1.3-0.7-2.5-1.4-3.6c-1.4-2-3.2-3.1-5.8-3.3
						c-0.7-0.1-1.3,0-1.9,0c-0.6,0.1-1.2,0.2-1.8,0.4c-1.2,0.4-2.3,1.2-3.3,2.3c-0.9,1.1-1.7,2.4-2.1,3.9c-0.4,1.2-0.5,2.4-0.6,3.6
						v1l0,19.4h-6.4l0-19.4v-1.2l0-0.6l0-0.5c0-0.7-0.1-1.4-0.2-2c-0.2-1.3-0.7-2.5-1.4-3.6c-1.4-2-3.2-3.1-5.8-3.3
						c-0.7-0.1-1.3,0-1.9,0c-0.6,0.1-1.2,0.2-1.8,0.4c-1.2,0.4-2.3,1.2-3.3,2.3c-0.9,1.1-1.7,2.4-2.1,3.9c-0.4,1.1-0.5,2.2-0.6,3.4
						v20.6h-6.4v-36h6.4V24c0.8-1.2,1.8-2.4,3.2-3.3c0.9-0.6,2-1.1,3.1-1.4c1.1-0.3,2.3-0.5,3.4-0.6c1.1,0,2.3,0,3.5,0.3
						c1.2,0.2,2.3,0.7,3.3,1.2c2.1,1.1,3.7,2.8,4.8,4.6c0.4,0.7,0.7,1.3,1,2c0.1-0.5,0.3-0.9,0.5-1.4c0.8-1.7,2.1-3.5,4-4.7
						c0.9-0.6,2-1.1,3.1-1.4c1.1-0.3,2.3-0.5,3.4-0.6c1.1,0,2.3,0,3.5,0.3c1.2,0.2,2.3,0.7,3.3,1.2c2.1,1.1,3.7,2.8,4.8,4.6
						c1.1,1.8,1.6,3.7,2,5.6c0.2,0.9,0.2,1.9,0.2,2.8v2.5l0,19.4H307L307,35.7z"/>
					<path d="M374.5,30.2c0,14.3-12.6,26-28,26s-28-11.7-28-26s12.6-26,28-26c7.8,0,14.9,3,20,7.8l-4.5,4.1
						c-3.9-3.8-9.4-6.1-15.5-6.1c-11.9,0-21.7,9.1-21.7,20.2s9.7,20.2,21.7,20.2c10.9,0,19.9-7.5,21.4-17.3h-20.1l6.4-5.8h20.2
						C374.5,28.3,374.5,29.3,374.5,30.2z"/>
					<path d="M379.6,55.1V4.8h6.4v50.4H379.6z"/>
					<path d="M433,19.1v36h-6.4v-6.5c-0.3,0.4-0.7,0.8-1,1.2c-1.7,1.8-3.8,3.3-6.1,4.3c-2.4,1-5,1.6-7.7,1.7c-2.7,0-5.3-0.4-7.8-1.4
						c-2.5-1-4.7-2.4-6.5-4.1c-3.7-3.5-5.7-8.3-5.7-13.1c0-4.8,2-9.6,5.7-13.1c1.8-1.7,4.1-3.2,6.5-4.1c2.5-0.9,5.2-1.4,7.8-1.4
						c2.7,0.1,5.3,0.6,7.7,1.7c2.4,1,4.5,2.5,6.1,4.3c0.4,0.4,0.7,0.8,1,1.2v-6.5H433z M426.7,37.1c0-3.6-1.8-7.2-4.6-9.5
						c-2.9-2.4-6.6-3.5-10.2-3.4c-3.6,0.1-7.1,1.5-9.7,3.8c-2.6,2.4-4,5.6-4.1,9c0,3.4,1.5,6.6,4.1,9c1.3,1.2,2.8,2.1,4.4,2.8
						c1.6,0.7,3.4,1,5.2,1.1c3.6,0.1,7.3-1,10.2-3.4C424.9,44.3,426.7,40.7,426.7,37.1z"/>
					<path d="M467.4,45.1c0.1,2.8-1,5.3-3.2,7.2c-2.5,2.2-6.2,3.5-10.3,3.5c-0.3,0-0.6,0-0.9,0c-7-0.3-12.7-4.3-14.4-10.1l6.1-1.5
						c1.2,4.1,5.2,5.7,8.6,5.8c2.6,0.1,5-0.6,6.4-1.8c0.9-0.8,1.3-1.7,1.3-2.9c-0.1-3.3-3.6-4.7-7.9-6.1c-0.6-0.2-1.2-0.4-1.6-0.6
						c-0.2-0.1-0.5-0.2-0.8-0.3c-3.2-1.1-10.8-3.7-10.2-10.5c0.4-4.5,4.4-9.2,12.5-9.2c6.3,0,11,2.7,13.1,7.5l-5.9,2.2
						c-0.4-1-1.7-3.9-7.3-3.9c-0.2,0-5.8,0-6.1,3.9c-0.2,2.1,2.2,3.4,6.1,4.7c0.3,0.1,0.7,0.2,0.9,0.3c0.4,0.2,0.9,0.3,1.4,0.5
						C459.1,34.9,467.2,37.5,467.4,45.1z"/>
					<path d="M500,45.1c0.1,2.8-1,5.3-3.2,7.2c-2.5,2.2-6.2,3.5-10.3,3.5c-0.3,0-0.6,0-0.9,0c-7-0.3-12.7-4.3-14.4-10.1l6.1-1.5
						c1.2,4.1,5.2,5.7,8.6,5.8c2.6,0.1,5-0.6,6.4-1.8c0.9-0.8,1.3-1.7,1.3-2.9c-0.1-3.3-3.6-4.7-7.9-6.1c-0.6-0.2-1.2-0.4-1.6-0.6
						c-0.2-0.1-0.5-0.2-0.8-0.3c-3.2-1.1-10.8-3.7-10.2-10.5c0.4-4.5,4.4-9.2,12.5-9.2c6.3,0,11,2.7,13.1,7.5l-5.9,2.2
						c-0.4-1-1.7-3.9-7.3-3.9c-0.2,0-5.8,0-6.1,3.9c-0.2,2.1,2.2,3.4,6.1,4.7c0.3,0.1,0.7,0.2,0.9,0.3c0.4,0.2,0.9,0.3,1.4,0.5
						C491.7,34.9,499.8,37.5,500,45.1z"/>
				</g>
			</g>
			<g>
				<path d="M117,82.5V69h1.8v10.4l7.1-10.4h1.7v13.4h-1.8V72l-7.2,10.5H117z"/>
				<path d="M165.1,82.5V70.7h-3.8V69h9.5v1.7h-3.8v11.8H165.1z"/>
				<path d="M182.8,82.5V69h8.4v1.6h-6.6v4h5.8v1.5h-5.8v4.6h6.7v1.6H182.8z"/>
				<path d="M204.1,82.5V69h4.7c0.9,0,1.8,0.2,2.5,0.5c0.7,0.3,1.3,0.8,1.7,1.4c0.4,0.6,0.6,1.3,0.6,2.2c0,0.9-0.2,1.6-0.6,2.2
					c-0.4,0.6-0.9,1-1.6,1.4c-0.7,0.3-1.6,0.5-2.6,0.5h-2.8v5.4H204.1z M205.9,75.5h2.9c0.9,0,1.7-0.2,2.2-0.6
					c0.5-0.4,0.8-1,0.8-1.8c0-0.8-0.3-1.4-0.8-1.8c-0.5-0.4-1.2-0.7-2.1-0.7h-2.9V75.5z"/>
				<path d="M225.7,82.5V69h1.8v5.4h2.9c0.9,0,1.8,0.2,2.5,0.5c0.7,0.3,1.3,0.8,1.7,1.4c0.4,0.6,0.6,1.3,0.6,2.2
					c0,0.6-0.1,1.2-0.3,1.7c-0.2,0.5-0.5,0.9-0.9,1.3c-0.4,0.3-0.9,0.6-1.5,0.8c-0.6,0.2-1.3,0.3-2.1,0.3H225.7z M227.5,80.9h2.9
					c0.9,0,1.7-0.2,2.2-0.6c0.5-0.4,0.8-1,0.8-1.8c0-0.8-0.3-1.4-0.8-1.8c-0.5-0.4-1.2-0.7-2.1-0.7h-2.9V80.9z"/>
				<path d="M247.4,82.5V69h8.4v1.6h-6.6v4h5.8v1.5h-5.8v4.6h6.7v1.6H247.4z"/>
				<path d="M268.6,82.5V69h4.7c0.9,0,1.8,0.2,2.5,0.5c0.7,0.3,1.3,0.8,1.7,1.4c0.4,0.6,0.6,1.3,0.6,2.2c0,0.9-0.2,1.6-0.6,2.2
					c-0.4,0.6-0.9,1-1.6,1.4c-0.7,0.3-1.6,0.5-2.6,0.5h-2.8v5.4H268.6z M270.4,75.5h2.9c0.9,0,1.7-0.2,2.2-0.6
					c0.5-0.4,0.8-1,0.8-1.8c0-0.8-0.3-1.4-0.8-1.8c-0.5-0.4-1.2-0.7-2.1-0.7h-2.9V75.5z"/>
				<path d="M290.3,82.5V69h1.8v5.5h6.9V69h1.8v13.4H299v-6.3h-6.9v6.3H290.3z"/>
				<path d="M320.2,82.7c-1,0-1.9-0.2-2.8-0.5s-1.6-0.8-2.2-1.5c-0.6-0.6-1.1-1.4-1.5-2.2c-0.4-0.8-0.5-1.8-0.5-2.8
					c0-1,0.2-1.9,0.5-2.8c0.4-0.8,0.8-1.6,1.5-2.2c0.6-0.6,1.4-1.1,2.2-1.5c0.9-0.4,1.8-0.5,2.8-0.5c1,0,1.9,0.2,2.8,0.5
					c0.9,0.4,1.6,0.9,2.2,1.5c0.6,0.6,1.1,1.4,1.5,2.2c0.4,0.8,0.5,1.8,0.5,2.7c0,1-0.2,1.9-0.5,2.8c-0.4,0.8-0.9,1.6-1.5,2.2
					c-0.6,0.6-1.4,1.1-2.2,1.5C322.1,82.6,321.2,82.7,320.2,82.7z M320.2,81c0.7,0,1.4-0.1,2-0.4c0.6-0.2,1.2-0.6,1.6-1.1
					c0.5-0.5,0.8-1,1.1-1.7c0.3-0.7,0.4-1.4,0.4-2.2c0-1.1-0.2-2-0.7-2.8c-0.5-0.8-1.1-1.4-1.9-1.8c-0.8-0.4-1.6-0.7-2.6-0.7
					c-0.7,0-1.4,0.1-2,0.4c-0.6,0.2-1.2,0.6-1.6,1.1c-0.5,0.5-0.8,1-1.1,1.7c-0.3,0.6-0.4,1.4-0.4,2.2c0,1.1,0.2,2,0.7,2.8
					c0.5,0.8,1.1,1.4,1.9,1.8C318.3,80.8,319.2,81,320.2,81z"/>
				<path d="M340,82.5V69h8.4v1.6h-6.6v4h5.8v1.5h-5.8v4.6h6.7v1.6H340z"/>
				<path d="M381.5,82.7c-1.4,0-2.6-0.3-3.6-0.9c-1-0.6-1.8-1.4-2.4-2.4c-0.6-1-0.9-2.3-0.9-3.7c0-1,0.2-1.9,0.5-2.8
					s0.8-1.6,1.4-2.2c0.6-0.6,1.4-1.1,2.2-1.5c0.8-0.3,1.8-0.5,2.8-0.5c1,0,1.9,0.1,2.6,0.4c0.7,0.2,1.4,0.6,1.9,1.1l-1,1.5
					c-0.4-0.4-0.9-0.7-1.5-0.9c-0.6-0.2-1.2-0.3-1.9-0.3c-0.8,0-1.5,0.1-2.1,0.4c-0.6,0.2-1.2,0.6-1.6,1c-0.5,0.5-0.8,1-1,1.7
					c-0.2,0.6-0.4,1.4-0.4,2.2c0,1.1,0.2,2.1,0.6,2.8c0.4,0.8,1,1.4,1.8,1.8c0.8,0.4,1.7,0.6,2.8,0.6c0.7,0,1.4-0.1,2-0.3
					c0.6-0.2,1.2-0.5,1.8-1l0.8,1.5c-0.7,0.5-1.4,0.9-2.2,1.2C383.4,82.6,382.5,82.7,381.5,82.7z"/>
				<path d="M401.3,82.5V70.7h-3.8V69h9.5v1.7h-3.8v11.8H401.3z"/>
				<path d="M419.1,82.5V69h8.4v1.6h-6.6v4h5.8v1.5h-5.8v4.6h6.7v1.6H419.1z"/>
				<path d="M440.3,82.5V69h1.8v5.5h2.5v1.7h-2.5v6.3H440.3z M448.7,82.5l-5.5-7.1L448,69h2.2l-4.9,6.3l5.7,7.1H448.7z"/>
				<path d="M462.3,82.7l-0.7-1.7c0.4-0.1,0.8-0.3,1.1-0.5c0.3-0.2,0.6-0.5,0.8-0.8c0.2-0.3,0.4-0.8,0.5-1.3
					c0.1-0.6,0.2-1.3,0.3-2.1c0.1-0.8,0.1-1.9,0.1-3.1V69h9.1v13.4h-1.8V70.7h-5.6v2.4c0,1.4,0,2.6-0.1,3.6c-0.1,1-0.2,1.8-0.4,2.5
					c-0.2,0.7-0.4,1.2-0.7,1.7c-0.3,0.4-0.6,0.8-1.1,1.1C463.4,82.3,462.9,82.5,462.3,82.7z"/>
				<path d="M493,82.7c-1,0-1.9-0.2-2.8-0.5s-1.6-0.8-2.2-1.5c-0.6-0.6-1.1-1.4-1.5-2.2c-0.4-0.8-0.5-1.8-0.5-2.8
					c0-1,0.2-1.9,0.5-2.8c0.4-0.8,0.8-1.6,1.5-2.2c0.6-0.6,1.4-1.1,2.2-1.5c0.9-0.4,1.8-0.5,2.8-0.5c1,0,1.9,0.2,2.8,0.5
					c0.9,0.4,1.6,0.9,2.2,1.5c0.6,0.6,1.1,1.4,1.5,2.2c0.4,0.8,0.5,1.8,0.5,2.7c0,1-0.2,1.9-0.5,2.8c-0.4,0.8-0.9,1.6-1.5,2.2
					c-0.6,0.6-1.4,1.1-2.2,1.5C494.9,82.6,494,82.7,493,82.7z M493,81c0.7,0,1.4-0.1,2-0.4c0.6-0.2,1.2-0.6,1.6-1.1
					c0.5-0.5,0.8-1,1.1-1.7c0.3-0.7,0.4-1.4,0.4-2.2c0-1.1-0.2-2-0.7-2.8s-1.1-1.4-1.9-1.8c-0.8-0.4-1.6-0.7-2.6-0.7
					c-0.7,0-1.4,0.1-2,0.4c-0.6,0.2-1.2,0.6-1.6,1.1c-0.5,0.5-0.8,1-1.1,1.7c-0.3,0.6-0.4,1.4-0.4,2.2c0,1.1,0.2,2,0.7,2.8
					c0.5,0.8,1.1,1.4,1.9,1.8C491.2,80.8,492,81,493,81z"/>
				<path d="M139.6,82.5V69h1.8v5.5h6.9V69h1.8v13.4h-1.8v-6.3h-6.9v6.3H139.6z"/>
			</g>
		</g>
	</g>
	<polygon class="st0" points="59.9,27.6 59.9,16.2 59.9,4.7 82.7,4.7 82.7,27.6 71.3,27.6 	"/>
	
		<rect x="59.9" y="32.3" transform="matrix(0.7071 -0.7071 0.7071 0.7071 -10.0382 63.2386)" class="st1" width="22.8" height="22.8"/>
	<polygon class="st2" points="59.9,71.3 59.9,82.7 82.7,82.7 82.7,59.9 71.3,59.9 59.9,59.9 	"/>
	<rect x="32.3" y="4.7" transform="matrix(0.7071 -0.7071 0.7071 0.7071 1.3859 35.6584)" class="st3" width="22.8" height="22.8"/>
	<polygon class="st4" points="27.6,16.2 27.6,4.7 4.7,4.7 4.7,27.6 16.2,27.6 27.6,27.6 	"/>
	
		<rect x="4.7" y="32.3" transform="matrix(0.7071 -0.7071 0.7071 0.7071 -26.1944 24.2342)" class="st3" width="22.8" height="22.8"/>
	<polygon class="st0" points="27.6,59.9 16.2,59.9 4.7,59.9 4.7,82.7 27.6,82.7 27.6,71.3 	"/>
	
		<rect x="32.3" y="59.9" transform="matrix(0.7071 -0.7071 0.7071 0.7071 -37.6185 51.8145)" class="st1" width="22.8" height="22.8"/>
	<polygon class="st0" points="55.2,43.7 55.2,32.3 43.7,32.3 32.3,32.3 32.3,43.7 32.3,55.2 43.7,55.2 55.2,55.2 	"/>
</g>
</svg>
