<svg width="590" height="105" viewBox="0 0 590 105" fill="none" xmlns="http://www.w3.org/2000/svg">
<path d="M463.259 36.3284H425.053V45.9794C425.053 51.3234 429.36 55.5904 434.704 55.5904H478.374V64.1244H434.704C424.693 64.1244 416.558 55.9894 416.558 45.9794V18.1824C416.558 8.17238 424.693 0.036377 434.704 0.036377H478.374V8.57038H434.704C429.36 8.57038 425.053 12.8384 425.053 18.1824V27.8334H463.259V36.3284ZM590 64.1254C578.873 42.7484 567.787 21.4124 556.66 0.036377H551.515C540.388 21.4124 529.262 42.7484 518.175 64.1254H527.746C534.965 51.4434 550.359 45.3014 564.117 50.3664L558.893 40.1964C551.714 39.1994 544.337 40.3964 537.996 43.9854L553.948 12.5594L565.035 34.1754C570.219 44.1454 575.404 54.1154 580.588 64.1254H590ZM44.946 84.2654C50.291 84.2654 55.674 84.2654 61.018 84.2654V87.3354H48.217V92.1614H55.954C55.954 93.1984 55.954 94.2354 55.954 95.2324H48.217V104.444C47.14 104.444 46.023 104.444 44.946 104.444V84.2644V84.2654ZM75.136 96.1494H82.315L78.726 88.9714L75.137 96.1494H75.136ZM77.45 84.2654C78.287 84.2654 79.125 84.2654 79.962 84.2654L89.973 104.445C88.776 104.445 87.62 104.445 86.423 104.445L83.791 99.2604H73.621L71.068 104.445C69.912 104.445 68.715 104.445 67.559 104.445L77.45 84.2654ZM106.164 91.9224H114.977C116.533 91.9224 117.689 91.3644 117.689 89.6494C117.689 87.8944 116.613 87.3364 114.977 87.3364H106.164V91.9224ZM106.164 101.414H115.855C117.849 101.414 118.966 100.177 118.966 98.1834C118.966 96.1894 117.81 94.9924 115.855 94.9924H106.164V101.414ZM102.894 84.2654H114.779C117.091 84.2654 119.604 84.9034 120.561 87.2564C120.84 87.9344 120.96 88.6914 120.96 89.5294C120.96 90.8454 120.521 92.1214 119.524 93.0384C121.359 94.2754 122.356 96.0294 122.356 98.2224C122.356 102.41 119.204 104.444 115.376 104.444H102.893V84.2644L102.894 84.2654ZM140.701 91.9224H149.515C151.07 91.9224 152.227 91.3644 152.227 89.6494C152.227 87.8944 151.15 87.3364 149.515 87.3364H140.701V91.9224ZM140.701 101.414H150.392C152.386 101.414 153.503 100.177 153.503 98.1834C153.503 96.2294 152.386 94.9924 150.392 94.9924H140.701V101.414ZM137.431 84.2654H149.315C151.668 84.2654 154.141 84.9034 155.098 87.2564C155.856 89.1304 155.617 91.6424 154.061 93.0384C155.895 94.2754 156.853 95.9904 156.853 98.2224C156.853 102.41 153.742 104.444 149.913 104.444H137.431V84.2644V84.2654ZM175.118 92.8794H183.214C185.128 92.8794 186.484 92.2014 186.484 90.1274C186.484 88.1734 185.208 87.3364 183.333 87.3364H175.118V92.8794ZM171.848 84.2654H183.374C187.122 84.2654 189.874 86.2194 189.874 90.0874C189.874 92.8394 188.159 95.1124 185.488 95.8304L190.393 104.445H186.804L181.938 95.9904H175.119V104.445C174.042 104.445 172.965 104.445 171.848 104.445V84.2654ZM204.55 84.1854C205.627 84.1854 206.744 84.1854 207.821 84.1854V104.445C206.744 104.445 205.627 104.445 204.55 104.445V84.1854ZM242.238 99.1804C240.244 102.929 237.094 104.963 232.786 104.963C228.479 104.963 224.69 102.69 223.095 98.5824C221.579 94.6734 222.337 89.8484 225.328 86.8574C227.362 84.7834 229.914 83.8664 232.786 83.8664C236.734 83.8664 239.725 85.5814 241.839 88.8914L239.087 90.8454C238.728 90.1274 238.409 89.5694 237.811 88.9714C235.856 86.9374 232.546 86.4184 229.954 87.4954C227.122 88.6524 225.687 91.4434 225.687 94.4344C225.687 98.6624 228.558 101.852 232.786 101.852C236.176 101.852 238.09 100.058 239.606 97.2264L242.238 99.1804ZM261.102 96.1494H268.28L264.691 88.9714L261.102 96.1494ZM263.415 84.2654C264.253 84.2654 265.09 84.2654 265.927 84.2654L275.938 104.445C274.741 104.445 273.585 104.445 272.388 104.445L269.756 99.2604H259.586L257.034 104.445C255.877 104.445 254.681 104.445 253.524 104.445L263.414 84.2654H263.415ZM322.319 87.3364H316.855V101.414H322.319C326.706 101.414 329.578 98.8614 329.578 94.3954C329.578 90.0084 326.666 87.3364 322.319 87.3364ZM322.319 84.2654C328.42 84.2654 332.887 88.1734 332.887 94.4344C332.887 100.815 328.42 104.445 322.319 104.445H313.625V84.2654H322.319ZM347.404 84.1854C348.521 84.1854 349.598 84.1854 350.715 84.1854V104.445C349.598 104.445 348.521 104.445 347.404 104.445V84.1854ZM391.393 84.2654C392.35 84.2654 393.307 84.2654 394.264 84.2654L401.881 95.7904L409.498 84.2654C410.456 84.2654 411.373 84.2654 412.33 84.2654V104.445C411.253 104.445 410.176 104.445 409.14 104.445V90.3274L402.2 100.616L401.881 101.134L401.522 100.616L394.623 90.3274V104.445C393.546 104.445 392.469 104.445 391.392 104.445V84.2654H391.393ZM437.136 101.852C441.443 101.852 444.275 98.6224 444.275 94.4344C444.275 90.2074 441.443 86.9374 437.136 86.9374C432.909 86.9374 430.037 90.1674 430.037 94.4344C430.037 98.6624 432.909 101.852 437.136 101.852ZM437.136 104.963C431.035 104.963 426.727 100.496 426.727 94.4344C426.727 88.3334 431.035 83.8664 437.136 83.8664C443.238 83.8664 447.625 88.3334 447.625 94.4344C447.625 100.496 443.238 104.963 437.136 104.963ZM465.372 91.9224H474.186C475.741 91.9224 476.898 91.3644 476.898 89.6494C476.898 87.8944 475.821 87.3364 474.186 87.3364H465.372V91.9224ZM465.372 101.414H475.063C477.057 101.414 478.174 100.177 478.174 98.1834C478.174 96.2294 477.057 94.9924 475.063 94.9924H465.372V101.414ZM462.102 84.2654H473.986C476.339 84.2654 478.812 84.9034 479.769 87.2564C480.527 89.1304 480.288 91.6424 478.732 93.0384C480.567 94.2754 481.524 96.0294 481.524 98.2224C481.524 102.41 478.413 104.444 474.585 104.444H462.102V84.2644V84.2654ZM496.679 84.1854C497.755 84.1854 498.872 84.1854 499.949 84.1854V104.445C498.872 104.445 497.755 104.445 496.679 104.445V84.1854ZM516.021 84.2654C517.138 84.2654 518.215 84.2654 519.291 84.2654V101.414H531.894C531.894 102.411 531.894 103.448 531.894 104.445H516.021V84.2654ZM545.134 84.1854C546.211 84.1854 547.288 84.1854 548.405 84.1854V104.445C547.288 104.445 546.211 104.445 545.134 104.445V84.1854ZM213.244 0.036377H242.996C260.702 0.036377 275.06 14.3934 275.06 32.0604C275.06 49.7674 260.703 64.1254 242.996 64.1254H213.244V55.5914H242.996C255.996 55.5914 266.525 45.0624 266.525 32.0614C266.525 19.1004 255.996 8.57138 242.996 8.57138H213.244V0.036377ZM314.821 0.036377H346.606C382.26 0.036377 386.328 35.1314 358.77 43.1084C364.154 46.3384 373.606 58.7414 376.517 64.1254H366.946C361.522 55.9104 352.628 44.7434 339.946 44.7434H314.821V36.2094H346.606C374.164 36.2094 374.723 8.57138 346.606 8.57138H314.821V0.037377V0.036377ZM0.001 64.1254C11.088 42.7484 22.215 21.4124 33.302 0.036377H38.486C49.613 21.4124 60.7 42.7484 71.826 64.1254H62.215C56.95 54.7934 46.781 48.5714 36.013 48.5714C32.224 48.5714 28.834 49.2894 25.883 50.3664L31.108 40.1964C38.246 39.1994 45.664 40.3964 52.005 43.9854L36.053 12.5594C27.199 29.7884 18.306 46.9374 9.372 64.1254H0H0.001ZM111.588 0.036377C113.622 0.036377 115.656 0.036377 117.65 0.036377C133.403 16.4674 149.156 32.8584 164.909 49.2894V0.036377H173.443V64.1254H167.461L120.122 14.8724V64.1254H111.588V0.036377Z" fill="#3C3C3C"/>
</svg>
