<svg width="100" height="100" viewBox="0 0 100 100" fill="none" xmlns="http://www.w3.org/2000/svg">
<g clip-path="url(#clip0_11_943)">
<rect width="100" height="100" rx="50" fill="white"/>
<g clip-path="url(#clip1_11_943)">
<mask id="mask0_11_943" style="mask-type:luminance" maskUnits="userSpaceOnUse" x="0" y="0" width="100" height="100">
<path d="M100 0H0V100H100V0Z" fill="white"/>
</mask>
<g mask="url(#mask0_11_943)">
<path d="M100 0H0V100H100V0Z" fill="white"/>
<path d="M100.05 0H0.0498047V100H100.05V0Z" fill="url(#paint0_linear_11_943)"/>
<path d="M100.05 0H0.0498047V100H100.05V0Z" fill="url(#paint1_linear_11_943)"/>
<path d="M100.05 0H0.0498047V100H100.05V0Z" fill="url(#paint2_linear_11_943)"/>
<path d="M100.05 0H0.0498047V100H100.05V0Z" fill="url(#paint3_linear_11_943)"/>
</g>
</g>
</g>
<defs>
<linearGradient id="paint0_linear_11_943" x1="82.4498" y1="6.95" x2="26.1498" y2="100" gradientUnits="userSpaceOnUse">
<stop stop-color="#A8EFFF"/>
<stop offset="0.510417" stop-color="#4AFFF4"/>
<stop offset="1" stop-color="#3BE2ED"/>
</linearGradient>
<linearGradient id="paint1_linear_11_943" x1="-4.30021" y1="132.3" x2="47.8998" y2="59.6" gradientUnits="userSpaceOnUse">
<stop stop-color="#B7FF8A"/>
<stop offset="0.963542" stop-color="#CDFF63" stop-opacity="0"/>
</linearGradient>
<linearGradient id="paint2_linear_11_943" x1="50.0498" y1="36" x2="113.9" y2="50" gradientUnits="userSpaceOnUse">
<stop stop-color="#FFDCC9" stop-opacity="0"/>
<stop offset="1" stop-color="#FFF9BF"/>
</linearGradient>
<linearGradient id="paint3_linear_11_943" x1="50.0498" y1="-11.8" x2="53.2998" y2="64" gradientUnits="userSpaceOnUse">
<stop stop-color="#FFF495"/>
<stop offset="1" stop-color="#EDF494" stop-opacity="0"/>
</linearGradient>
<clipPath id="clip0_11_943">
<rect width="100" height="100" rx="50" fill="white"/>
</clipPath>
<clipPath id="clip1_11_943">
<rect width="100" height="100" fill="white"/>
</clipPath>
</defs>
</svg>
