<svg width="100" height="100" viewBox="0 0 100 100" fill="none" xmlns="http://www.w3.org/2000/svg">
<g clip-path="url(#clip0_11_889)">
<rect width="100" height="100" rx="50" fill="white"/>
<g clip-path="url(#clip1_11_889)">
<mask id="mask0_11_889" style="mask-type:luminance" maskUnits="userSpaceOnUse" x="0" y="0" width="100" height="100">
<path d="M100 0H0V100H100V0Z" fill="white"/>
</mask>
<g mask="url(#mask0_11_889)">
<path d="M100 0H0V100H100V0Z" fill="white"/>
<path d="M100.05 0H0.0498047V100H100.05V0Z" fill="url(#paint0_linear_11_889)"/>
<path d="M100.05 0H0.0498047V100H100.05V0Z" fill="url(#paint1_linear_11_889)"/>
<path d="M100.05 0H0.0498047V100H100.05V0Z" fill="url(#paint2_linear_11_889)"/>
<path d="M100.05 0H0.0498047V100H100.05V0Z" fill="url(#paint3_linear_11_889)"/>
</g>
</g>
</g>
<defs>
<linearGradient id="paint0_linear_11_889" x1="82.4498" y1="6.95" x2="26.1498" y2="100" gradientUnits="userSpaceOnUse">
<stop stop-color="#A8EFFF"/>
<stop offset="0.510417" stop-color="#4AF4FF"/>
<stop offset="1" stop-color="#B8FBFF"/>
</linearGradient>
<linearGradient id="paint1_linear_11_889" x1="3.3498" y1="100" x2="47.8998" y2="59.6" gradientUnits="userSpaceOnUse">
<stop stop-color="#8AD5FF"/>
<stop offset="0.963542" stop-color="#63C7FF" stop-opacity="0"/>
</linearGradient>
<linearGradient id="paint2_linear_11_889" x1="50.0498" y1="36" x2="94.2498" y2="50" gradientUnits="userSpaceOnUse">
<stop stop-color="#D0FFC9" stop-opacity="0"/>
<stop offset="0.0001" stop-color="#D0FFC9" stop-opacity="0"/>
<stop offset="1" stop-color="#E7F6FF"/>
</linearGradient>
<linearGradient id="paint3_linear_11_889" x1="54.4498" y1="12.7" x2="53.2998" y2="64" gradientUnits="userSpaceOnUse">
<stop stop-color="#95F2FF"/>
<stop offset="1" stop-color="#ADF494" stop-opacity="0.16"/>
</linearGradient>
<clipPath id="clip0_11_889">
<rect width="100" height="100" rx="50" fill="white"/>
</clipPath>
<clipPath id="clip1_11_889">
<rect width="100" height="100" fill="white"/>
</clipPath>
</defs>
</svg>
