<svg width="170" height="30" viewBox="0 0 170 30" fill="none" xmlns="http://www.w3.org/2000/svg">
<g clip-path="url(#clip0_1_181)">
<path d="M115.513 21.7714H130.856V18.4286H120.744C122.138 12.9429 130.682 11.7429 130.682 5.65714C130.682 2.4 128.415 0 123.621 0C120.656 0 118.041 0.857143 116.297 1.71429L117.344 4.8C118.913 4.02857 120.744 3.34286 123.01 3.34286C124.754 3.34286 126.41 4.11429 126.41 6.08571C126.41 10.5429 116.385 10.8857 115.513 21.7714ZM131.292 16.4571H141.144V21.7714H145.067V16.4571H148.379V13.2H145.067V0H142.19L131.292 13.8857V16.4571ZM135.738 13.3714L141.318 6C141.318 6.6 141.144 8.48571 141.144 10.2V13.2857H138.528C137.744 13.2857 136.262 13.3714 135.738 13.3714Z" fill="#ACB2B9"/>
<path d="M4.09744 18.5143V11.7428H5.75385C7.2359 11.7428 8.45641 11.9143 9.32821 12.4286C10.2 12.9428 10.7231 13.8 10.7231 15.1714C10.7231 17.4857 9.32821 18.5143 6.01539 18.5143H4.09744ZM0.0871795 21.7714H5.92821C12.4667 21.7714 14.8205 18.9428 14.8205 15C14.8205 12.3428 13.6872 10.5428 11.6821 9.51427C10.1128 8.65712 8.10769 8.39998 5.66667 8.39998H4.09744V3.25712H12.9026L13.9487 0.0856934H0V21.7714H0.0871795ZM17.5231 21.7714H21.359L26.3282 14.7428C27.2872 13.4571 27.9846 12.1714 28.4205 11.4857H28.5077C28.4205 12.4286 28.3333 13.6286 28.3333 14.8286V21.6857H32.2564V6.25712H28.4205L23.4513 13.2857C22.5795 14.5714 21.7949 15.8571 21.359 16.5428H21.2718C21.359 15.6 21.4462 14.4 21.4462 13.2V6.34284H17.5231V21.7714ZM38.9692 21.7714H42.9795V9.51427H47.6872L48.7333 6.25712H34.1744V9.51427H38.9692V21.7714ZM50.1282 29.5714H54.0513V21.7714C54.8359 22.0285 55.6205 22.1143 56.4923 22.1143C61.4615 22.1143 64.6872 18.7714 64.6872 13.9714C64.6872 8.99998 61.7231 5.82855 56.0564 5.82855C53.8769 5.82855 51.7846 6.25712 50.041 6.77141V29.5714H50.1282ZM54.0513 18.4286V9.34284C54.6615 9.17141 55.1846 9.08569 55.8821 9.08569C58.759 9.08569 60.5897 10.6286 60.5897 13.9714C60.5897 16.9714 59.1077 18.8571 56.1436 18.8571C55.359 18.8571 54.7487 18.6857 54.0513 18.4286ZM67.041 21.7714H70.8769L75.8462 14.7428C76.8051 13.4571 77.5026 12.1714 77.9385 11.4857H78.0257C77.9385 12.4286 77.8513 13.6286 77.8513 14.8286V21.6857H81.7744V6.25712H77.9385L72.9692 13.2857C72.0974 14.5714 71.3128 15.8571 70.8769 16.5428H70.7897C70.8769 15.6 70.9641 14.4 70.9641 13.2V6.34284H67.041V21.7714ZM84.9128 21.7714H88.9231V15.3428H91.2769C91.7128 15.3428 92.1487 15.7714 92.6718 16.8L94.6769 21.7714H98.9487L96.0718 15.8571C95.5487 14.8286 95.0257 14.2286 94.241 13.9714V13.8857C95.5487 13.1143 95.7231 10.8857 96.5077 9.77141C96.7692 9.42855 97.118 9.25712 97.641 9.25712C97.9026 9.25712 98.2513 9.25712 98.5128 9.42855V6.08569C98.0769 5.91426 97.2923 5.82855 96.8564 5.82855C95.4615 5.82855 94.5898 6.34284 93.9795 7.19998C92.6718 9.08569 92.6718 12.3428 90.7539 12.3428H88.9231V6.25712H84.9128V21.7714ZM107.841 22.1143C110.021 22.1143 112.026 21.4286 113.246 20.5714L112.113 17.9143C110.979 18.5143 109.933 18.9428 108.451 18.9428C105.749 18.9428 104.005 17.2285 104.005 14.0571C104.005 11.2285 105.749 8.99998 108.713 8.99998C110.282 8.99998 111.415 9.42855 112.549 10.2V6.85712C111.677 6.34284 110.282 5.82855 108.277 5.82855C103.569 5.82855 99.9077 9.25712 99.9077 14.1428C99.9077 18.6 102.697 22.1143 107.841 22.1143Z" fill="#ACB2B9"/>
<path d="M161.369 16.4571C165.641 16.4571 169.128 13.0285 169.128 8.82852C169.128 4.62852 165.641 1.19995 161.369 1.19995C157.097 1.19995 153.61 4.62852 153.61 8.82852C153.697 13.0285 157.097 16.4571 161.369 16.4571Z" stroke="#ACB2B9" stroke-width="1.7688"/>
<path d="M166.251 8.82854H161.979V4.62854H160.846V9.94283H166.251V8.82854Z" fill="#ACB2B9"/>
</g>
<defs>
<clipPath id="clip0_1_181">
<rect width="170" height="30" fill="white"/>
</clipPath>
</defs>
</svg>
