<svg width="122" height="40" viewBox="0 0 122 40" fill="none" xmlns="http://www.w3.org/2000/svg">
<path fill-rule="evenodd" clip-rule="evenodd" d="M13.609 38.644C13.5917 38.7006 13.563 38.753 13.5248 38.7982C13.4866 38.8434 13.4396 38.8803 13.3866 38.9068C13.3337 38.9332 13.276 38.9487 13.2169 38.9521C13.1578 38.9556 13.0987 38.9471 13.043 38.927C5.43 36.162 0 28.91 0 20.202C0 9.045 8.916 0 19.915 0C30.914 0 39.83 9.045 39.83 20.202C39.83 30.567 32.135 38.87 22.225 39.997C22.1577 40.0042 22.0897 39.9958 22.0262 39.9724C21.9627 39.949 21.9055 39.9112 21.859 39.862C21.8126 39.8128 21.7781 39.7536 21.7583 39.6889C21.7385 39.6242 21.734 39.5558 21.745 39.489C21.782 39.254 21.823 38.992 21.871 38.702C22.571 34.403 22.739 30.034 22.374 25.693C22.374 25.693 22.324 25.191 22.158 23.882C22.115 23.545 22.147 23.386 22.409 23.262C23.184 22.997 23.967 22.768 24.734 22.477C27.122 21.663 28.83 19.55 27.999 16.921C27.832 16.395 26.836 16.191 26.239 16.219C25.289 16.259 25.169 15.236 25.988 15.133C26.241 15.101 26.908 15.382 26.908 15.233C26.908 13.273 20 14.353 18.881 14.55C18.2914 14.6348 17.7247 14.8364 17.214 15.143C16.7008 15.4515 16.2536 15.8583 15.898 16.34C15.1775 17.3202 14.8686 18.5432 15.037 19.748C15.057 19.89 15.093 20.078 15.122 20.227C15.612 22.787 15.601 25.511 15.412 28.098C15.193 30.934 14.517 34.73 14.116 36.825C14.029 37.282 13.793 38.062 13.609 38.644ZM14.587 10.037C14.657 11.361 14.834 12.677 15.115 13.971C15.25 14.718 15.085 15.631 14.031 15.908C12.858 16.217 12.401 14.99 12.225 14.34C11.8168 13.0589 11.6852 11.7057 11.839 10.37C12.055 8.83 12.579 7.605 13.404 7.423C14.262 7.233 14.562 8.486 14.587 10.037ZM17.323 8.647C17.942 7.451 18.493 6.66 19.198 6.787V6.789C19.905 6.917 20.11 8.091 19.803 9.142C19.5611 10.1783 19.3815 11.2282 19.265 12.286C19.208 13.041 18.482 13.604 17.749 13.459C17.046 13.331 16.626 12.865 16.615 11.933C16.5879 10.7971 16.8306 9.67097 17.323 8.647Z" fill="#ACB2B9"/>
<path d="M19.314 16.967C19.1436 16.8519 18.9426 16.7905 18.737 16.791C18.6004 16.7914 18.4653 16.8199 18.3395 16.8729C18.2136 16.9259 18.0996 17.0035 18.004 17.101C17.8836 17.2242 17.795 17.3748 17.7458 17.5398C17.6966 17.7049 17.6883 17.8794 17.7215 18.0484C17.7548 18.2174 17.8287 18.3757 17.9368 18.5098C18.0448 18.6439 18.1839 18.7497 18.342 18.818C18.5315 18.8979 18.7407 18.9187 18.9423 18.8779C19.1439 18.837 19.3285 18.7364 19.472 18.589C19.6182 18.4406 19.7175 18.2523 19.7573 18.0478C19.7972 17.8432 19.7758 17.6315 19.696 17.439C19.6179 17.2475 19.485 17.0833 19.314 16.967Z" fill="#ACB2B9"/>
<path d="M64.31 12.5179V24.3929C64.31 27.3209 65.722 29.1069 67.803 29.1069C68.967 29.1069 69.885 28.2499 69.532 27.2139C69.126 25.9999 67.344 26.8039 67.344 23.5889V12.5179C67.344 11.5179 66.798 10.8929 65.827 10.8929C64.857 10.8929 64.31 11.5179 64.31 12.5179ZM50.498 22.7859C50.498 26.3209 53.056 29.1069 57.272 29.1069C59.953 29.1069 62.246 28.1789 62.246 26.7499C62.246 25.9639 61.753 25.5359 61.1 25.5359C60.236 25.5359 59.107 26.4289 57.202 26.4289C55.49 26.4289 54.132 25.6789 53.638 24.1609H58.013C60.518 24.1609 62.546 22.9639 62.546 20.6069C62.546 18.4289 60.8 16.0359 57.113 16.0359C53.233 16.0359 50.498 18.7139 50.498 22.7859ZM53.498 21.9289C53.832 19.7139 55.455 18.7139 57.29 18.7139C58.666 18.7139 59.565 19.3929 59.565 20.3039C59.565 21.3569 58.825 21.9289 57.131 21.9289H53.498ZM70.519 24.8929C70.519 27.2679 72.16 29.1069 74.841 29.1069C76.711 29.1069 78.457 28.2139 79.481 26.5359C79.745 27.7139 80.451 29.1069 82.091 29.1069C83.026 29.1069 83.679 28.5709 83.679 27.8389C83.679 26.5179 81.968 26.8209 81.968 25.4109V21.4999C81.968 18.1429 80.028 16.0359 76.164 16.0359C73.218 16.0359 71.049 16.8749 71.049 18.2139C71.049 18.9999 71.578 19.4459 72.249 19.4459C73.254 19.4459 74.383 18.7139 76.235 18.7139C77.716 18.7139 78.74 19.3389 78.898 21.0359H74.876C72.125 21.0359 70.519 22.8569 70.519 24.8929ZM73.519 25.0179C73.501 24.1609 74.171 23.2679 75.511 23.2679H78.898C78.651 25.4109 76.799 26.6779 75.3 26.6779C74.242 26.6779 73.537 26.0359 73.519 25.0179ZM85.179 27.5359C85.179 28.4289 85.725 29.1069 86.695 29.1069C87.665 29.1069 88.212 28.4289 88.212 27.5359V21.4999C88.212 19.3929 89.288 18.6789 90.364 18.6789C91.37 18.6789 92.004 19.3929 92.004 20.8389V27.5359C92.004 28.4289 92.534 29.1069 93.504 29.1069C94.474 29.1069 95.021 28.4289 95.021 27.5359L95.056 21.4999C95.074 19.3929 96.115 18.6789 97.191 18.6789C98.196 18.6789 98.831 19.3929 98.831 20.8039L98.849 27.5359C98.849 28.4289 99.378 29.1069 100.348 29.1069C101.318 29.1069 101.865 28.4289 101.865 27.5359V20.2679C101.865 17.5709 100.577 16.0539 98.549 16.0539C97.085 16.0539 95.585 16.9109 94.774 18.3749C94.28 16.8749 93.116 16.0539 91.634 16.0539C90.311 16.0539 89.041 16.8389 88.212 18.0889V17.4819C88.212 16.7139 87.665 16.0359 86.695 16.0359C85.725 16.0359 85.178 16.7139 85.178 17.6069L85.179 27.5359ZM103.841 24.8929C103.841 27.2679 105.481 29.1069 108.163 29.1069C110.032 29.1069 111.779 28.2139 112.802 26.5359C113.066 27.7139 113.772 29.1069 115.412 29.1069C116.347 29.1069 117 28.5709 117 27.8389C117 26.5179 115.289 26.8209 115.289 25.4109V21.4999C115.289 18.1429 113.349 16.0359 109.486 16.0359C106.54 16.0359 104.37 16.8749 104.37 18.2139C104.37 18.9999 104.899 19.4459 105.569 19.4459C106.575 19.4459 107.704 18.7139 109.556 18.7139C111.038 18.7139 112.061 19.3389 112.22 21.0359H108.198C105.446 21.0359 103.841 22.8569 103.841 24.8929ZM106.84 25.0179C106.822 24.1609 107.492 23.2679 108.833 23.2679H112.22C111.973 25.4109 110.121 26.6779 108.621 26.6779C107.563 26.6779 106.857 26.0359 106.84 25.0179Z" fill="#ACB2B9"/>
</svg>
