<svg width="85" height="30" viewBox="0 0 85 30" fill="none" xmlns="http://www.w3.org/2000/svg">
<path d="M13.3467 24.5161H8.68526C6.81268 24.5125 6.06583 23.3612 6.06583 21.5062V11.262H0V21.0171H0.00728645C0.156655 26.0066 3.57575 29.686 8.67433 29.6968H19.4143V11.2638H13.3485V24.5161H13.3467ZM70.5841 10.9877C65.1868 10.9877 62.3324 14.1817 58.5927 18.305C55.7 21.4953 53.5578 23.9585 51.2299 23.9585C48.1423 23.9585 45.4318 20.2791 44.042 11.2656H37.6792C38.7248 20.4938 42.3625 30 51.1388 30C56.7529 30 60.325 25.5753 63.3306 22.3417C66.6422 18.7795 67.9647 16.975 70.5039 16.975C73.8629 16.975 76.7301 21.3149 78.6263 29.6986H85C83.5191 21.2553 79.1673 10.9877 70.5841 10.9877ZM29.2453 0C27.2015 0 25.5439 1.64211 25.5439 3.66677C25.5439 5.69143 27.2015 7.33353 29.2453 7.33353C31.2891 7.33353 32.9468 5.69143 32.9468 3.66677C32.9468 1.64211 31.2891 0 29.2453 0ZM26.0685 29.6986H32.4222V11.2638H26.0685V29.6986Z" fill="#ACB2B9"/>
</svg>
