<svg width="174" height="30" viewBox="0 0 174 30" fill="none" xmlns="http://www.w3.org/2000/svg">
<path d="M52.6917 18.6126C52.6917 20.8901 50.5491 22.5393 47.5337 22.5393H40.4711V8.4032H47.2956C50.2317 8.4032 52.295 9.97388 52.295 12.1728C52.295 13.665 51.5014 14.6074 50.3111 15.1571C51.5808 15.6283 52.6917 16.8849 52.6917 18.6126ZM43.5659 10.9948V14.0577H47.2162C48.3272 14.0577 49.0414 13.4294 49.0414 12.5655C49.0414 11.7016 48.2479 10.9948 47.2162 10.9948H43.5659ZM47.5337 19.9477C48.724 19.9477 49.5969 19.2409 49.5969 18.22C49.5969 17.199 48.8033 16.4922 47.5337 16.4922H43.5659V19.9477H47.5337Z" fill="#ACB2B9"/>
<path d="M64.3569 22.4608L59.4369 16.8849H58.6434V22.4608H55.4692V8.4032H58.6434V13.822H59.4369L64.1982 8.4032H67.9279L61.9763 15.1571L68.4834 22.4608H64.3569Z" fill="#ACB2B9"/>
<path d="M68.4834 15.4713C68.4834 11.2304 71.6576 8.1676 76.1015 8.1676C80.5454 8.1676 83.7196 11.2304 83.7196 15.4713C83.7196 19.7121 80.5454 22.7749 76.1015 22.7749C71.6576 22.7749 68.4834 19.7121 68.4834 15.4713ZM80.3867 15.4713C80.3867 12.8011 78.6408 10.9948 76.1015 10.9948C73.5621 10.9948 71.8163 12.8011 71.8163 15.4713C71.8163 18.1414 73.5621 19.9477 76.1015 19.9477C78.6408 19.9477 80.3867 18.1414 80.3867 15.4713Z" fill="#ACB2B9"/>
<path d="M95.8609 8.4032H99.0351V22.4608H95.8609V16.8063H89.5125V22.4608H86.3383V8.4032H89.5125V13.9791H95.8609V8.4032Z" fill="#ACB2B9"/>
<path d="M105.86 22.4608V11.2304H100.939V8.4032H113.874V11.2304H108.954V22.4608H105.86Z" fill="#ACB2B9"/>
<path d="M127.523 14.6074V22.4608H125.222L124.587 20.2618C123.873 21.4399 122.365 22.7749 120.064 22.7749C117.207 22.7749 115.144 20.8901 115.144 18.2985C115.144 15.7069 117.207 13.9006 121.413 13.9006H124.508C124.349 12.0943 123.397 10.8378 121.651 10.8378C120.223 10.8378 119.271 11.6231 118.794 12.487L115.938 12.0158C116.652 9.58122 119.112 8.1676 121.81 8.1676C125.302 8.1676 127.523 10.5236 127.523 14.6074ZM124.429 16.3351H121.492C119.112 16.3351 118.318 17.1205 118.318 18.1414C118.318 19.3194 119.271 20.1048 120.858 20.1048C122.921 20.1048 124.429 18.6126 124.429 16.3351Z" fill="#ACB2B9"/>
<path d="M139.744 22.4608L134.824 16.8849H134.031V22.4608H130.856V8.4032H134.031V13.822H134.824L139.585 8.4032H143.315L137.363 15.1571L143.871 22.4608H139.744Z" fill="#ACB2B9"/>
<path d="M149.584 22.4608V11.2304H144.664V8.4032H157.599V11.2304H152.679V22.4608H149.584Z" fill="#ACB2B9"/>
<path d="M173.47 16.3351H162.043C162.36 18.5341 163.947 19.9477 166.328 19.9477C167.994 19.9477 169.264 19.2409 169.978 18.22L172.914 18.6912C171.883 21.3613 169.105 22.7749 166.09 22.7749C161.805 22.7749 158.71 19.7121 158.71 15.4713C158.71 11.2304 161.805 8.1676 166.09 8.1676C170.375 8.1676 173.47 11.2304 173.47 15.3142C173.549 15.7069 173.47 16.021 173.47 16.3351ZM162.281 13.9006H170.137C169.582 12.1728 168.153 10.9163 166.169 10.9163C164.265 10.8378 162.757 12.0943 162.281 13.9006Z" fill="#ACB2B9"/>
<path d="M0 14.4C0 7.61178 0 4.21766 2.13087 2.10883C4.26175 0 7.69134 0 14.5505 0H15.7631C22.6222 0 26.0518 0 28.1827 2.10883C30.3136 4.21766 30.3136 7.61178 30.3136 14.4V15.6C30.3136 22.3882 30.3136 25.7823 28.1827 27.8912C26.0518 30 22.6222 30 15.7631 30H14.5505C7.69134 30 4.26175 30 2.13087 27.8912C0 25.7823 0 22.3882 0 15.6V14.4Z" fill="#ACB2B9"/>
<path d="M16.1294 21.6125C9.22039 21.6125 5.27966 16.925 5.11546 9.125H8.57625C8.68993 14.85 11.2413 17.275 13.2622 17.775V9.125H16.521V14.0625C18.5166 13.85 20.6131 11.6 21.3204 9.125H24.5792C24.0361 12.175 21.7626 14.425 20.1458 15.35C21.7626 16.1 24.352 18.0625 25.3372 21.6125H21.7499C20.9795 19.2375 19.0598 17.4 16.521 17.15V21.6125H16.1294Z" fill="white"/>
</svg>
